<svg width="76" height="76" viewBox="0 0 76 76" fill="none" xmlns="http://www.w3.org/2000/svg">
<g clip-path="url(#clip0_44_2)">
<rect width="76" height="76" fill="black"/>
<g clip-path="url(#clip1_44_2)">
<path d="M15.9492 43.0413V24.4801H22.4532V43.0413C22.4532 44.7528 22.0538 46.2869 21.2551 47.6435C20.4563 48.9874 19.3406 50.0334 17.908 50.7814C16.4753 51.5294 14.8779 51.9034 13.1156 51.9034C10.1742 51.9034 7.88574 51.1554 6.25023 49.6594C4.61472 48.176 3.79697 46.0714 3.79697 43.3455H10.339C10.339 44.588 10.5545 45.4882 10.9856 46.046C11.404 46.6039 12.114 46.8828 13.1156 46.8828C14.0284 46.8828 14.7257 46.5468 15.2075 45.8749C15.7019 45.1902 15.9492 44.2457 15.9492 43.0413ZM41.9462 42.3756H48.4311C48.3424 44.252 47.8353 45.9129 46.9097 47.3582C45.9842 48.8036 44.6783 49.9193 42.9921 50.7053C41.3186 51.5041 39.4041 51.9034 37.2488 51.9034C33.6989 51.9034 30.9033 50.7434 28.8621 48.4232C26.8082 46.1031 25.7812 42.8321 25.7812 38.6102V37.2789C25.7812 34.6292 26.244 32.309 27.1695 30.3185C28.095 28.3407 29.4263 26.8066 31.1632 25.7163C32.8875 24.6386 34.8906 24.0998 37.1727 24.0998C40.4564 24.0998 43.0935 24.9619 45.084 26.6862C47.0746 28.4104 48.2093 30.7876 48.4882 33.8178H41.9842C41.9335 32.1696 41.5214 30.9905 40.7481 30.2805C39.962 29.5578 38.7702 29.1965 37.1727 29.1965C35.5499 29.1965 34.3645 29.8051 33.6165 31.0222C32.8558 32.2393 32.4564 34.1791 32.4184 36.8415V38.7433C32.4184 41.634 32.7797 43.6942 33.5024 44.924C34.225 46.1665 35.4739 46.7877 37.2488 46.7877C38.7449 46.7877 39.8923 46.4327 40.691 45.7227C41.4771 45.0254 41.8954 43.9097 41.9462 42.3756ZM72.2031 24.4801V29.5198H64.0826V51.5231H57.5596V29.5198H49.5912V24.4801H72.2031Z" fill="white"/>
</g>
</g>
<defs>
<clipPath id="clip0_44_2">
<rect width="76" height="76" fill="white"/>
</clipPath>
<clipPath id="clip1_44_2">
<rect width="76" height="76" fill="white"/>
</clipPath>
</defs>
</svg>
